<?xml version="1.0" encoding="UTF-8" standalone="no"?>
<svg
   xmlns:dc="http://purl.org/dc/elements/1.1/"
   xmlns:cc="http://creativecommons.org/ns#"
   xmlns:rdf="http://www.w3.org/1999/02/22-rdf-syntax-ns#"
   xmlns:svg="http://www.w3.org/2000/svg"
   xmlns="http://www.w3.org/2000/svg"
   xmlns:sodipodi="http://sodipodi.sourceforge.net/DTD/sodipodi-0.dtd"
   xmlns:inkscape="http://www.inkscape.org/namespaces/inkscape"
   sodipodi:docname="torsniffr-logo.svg"
   inkscape:version="1.0 (4035a4fb49, 2020-05-01)"
   id="svg8"
   version="1.1"
   viewBox="0 0 150 150"
   height="150mm"
   width="150mm">
  <defs
     id="defs2" />
  <sodipodi:namedview
     inkscape:window-maximized="0"
     inkscape:window-y="0"
     inkscape:window-x="285"
     inkscape:window-height="1112"
     inkscape:window-width="1375"
     showgrid="false"
     inkscape:document-rotation="0"
     inkscape:current-layer="layer1"
     inkscape:document-units="mm"
     inkscape:cy="331.74073"
     inkscape:cx="351.23011"
     inkscape:zoom="0.98994949"
     inkscape:pageshadow="2"
     inkscape:pageopacity="0.0"
     borderopacity="1.0"
     bordercolor="#666666"
     pagecolor="#ffffff"
     id="base" />
  <metadata
     id="metadata5">
    <rdf:RDF>
      <cc:Work
         rdf:about="">
        <dc:format>image/svg+xml</dc:format>
        <dc:type
           rdf:resource="http://purl.org/dc/dcmitype/StillImage" />
        <dc:title></dc:title>
      </cc:Work>
    </rdf:RDF>
  </metadata>
  <g
     id="layer1"
     inkscape:groupmode="layer"
     inkscape:label="Layer 1">
    <path
       style="fill:#000000;stroke-width:0.14851;fill-opacity:1"
       d="M 69.253214,147.90509 C 43.988528,145.90725 21.440046,130.78579 9.9371075,108.12636 7.5540415,103.43208 5.9011103,99.182658 4.5701134,94.328862 1.7652234,84.100028 1.2772619,72.870474 3.1820613,62.385069 5.3297935,50.562383 10.490032,39.325287 18.174765,29.736311 28.738256,16.55549 43.908023,7.3102667 60.491079,3.9468429 71.012024,1.8129668 82.012971,2.0739427 92.569389,4.7076467 c 2.661383,0.6640075 7.597551,2.311623 10.173001,3.3956214 14.06861,5.9212879 26.04573,16.1809019 34.07927,29.1923309 1.64079,2.657295 3.99298,7.220549 5.18523,10.058933 6.18992,14.736856 7.28977,31.577465 3.06771,46.97433 -4.05668,14.793708 -12.87064,28.187358 -24.84675,37.756798 -5.23065,4.17956 -11.39116,7.85089 -17.48546,10.4205 -6.91869,2.91726 -14.872059,4.81365 -22.714708,5.4162 -2.328932,0.17871 -8.417013,0.16909 -10.774468,-0.0153 z m 8.984882,-14.5389 c 12.051074,-0.75823 23.272104,-5.05954 32.677574,-12.52634 5.5876,-4.43578 10.57351,-10.18028 14.17265,-16.32919 1.26286,-2.15746 3.36198,-6.570105 4.21431,-8.859199 5.55123,-14.907668 4.81058,-31.224756 -2.06127,-45.410956 C 123.29099,42.085403 117.99453,35.433634 110.97095,29.806783 95.750374,17.61296 75.224128,13.926139 56.704039,20.059552 37.20868,26.515905 22.455776,42.806314 18.03683,62.756307 c -3.478577,15.704517 -0.275556,32.142146 8.847059,45.401993 3.80644,5.53269 8.784314,10.60003 14.243766,14.49963 3.682883,2.63066 9.246664,5.60113 13.353077,7.12917 7.684177,2.85939 15.789117,4.08038 23.757364,3.57909 z"
       id="path979" />
    <path
       style="fill:#7d4698;stroke-width:0.317614;fill-opacity:1"
       d="m 68.906131,131.14678 c -5.659653,-0.61024 -14.936516,-2.87164 -18.104039,-4.41315 -7.863154,-3.82671 -15.116957,-9.53575 -19.33013,-15.21346 -0.897838,-1.20997 -2.591827,-3.49343 -3.764415,-5.07434 -4.023737,-5.42492 -7.012466,-12.354536 -7.753127,-17.976152 -0.264696,-2.008911 -0.635742,-4.821534 -0.824584,-6.250272 -0.53567,-4.052822 -0.09822,-9.823174 1.058859,-13.96704 0.529055,-1.894721 1.041034,-3.802241 1.137721,-4.238998 0.09667,-0.436621 0.79191,-2.366245 1.544942,-4.28779 0.75303,-1.92159 1.893426,-4.923023 2.534202,-6.669919 1.300717,-3.545985 3.227457,-7.292036 4.737455,-9.210857 0.549899,-0.698731 1.680582,-2.255274 2.512628,-3.45898 2.276546,-3.293407 4.438424,-5.638319 8.300392,-9.003032 4.189436,-3.650103 5.94038,-4.808013 9.975694,-6.597162 6.460334,-2.864367 10.403027,-3.972034 15.274673,-4.291285 2.008919,-0.131615 5.748107,-0.498847 8.30932,-0.815919 l 4.656766,-0.57655 3.124814,0.699275 c 1.718638,0.384427 4.586021,0.980221 6.371965,1.323619 1.78596,0.343124 3.82754,0.920445 4.53686,1.282315 0.709338,0.362186 2.46395,1.088059 3.899153,1.61373 5.2992,1.940924 16.58879,10.3773 20.4998,15.318933 1.64868,2.083122 5.53049,8.742331 7.05138,12.09651 2.14519,4.731128 4.11347,10.747885 4.76545,14.567282 1.21976,7.145754 1.13745,16.164345 -0.19054,20.878054 -0.27068,0.960786 -0.68459,2.604427 -0.91982,3.652604 -1.28392,5.721413 -5.69479,13.781004 -10.55323,19.282884 -2.78919,3.15864 -7.86612,7.86948 -10.89726,10.11156 -1.31012,0.96909 -3.26623,2.41658 -4.34686,3.21661 -3.604035,2.66829 -8.149725,4.84758 -12.696474,6.0871 -2.29897,0.62666 -5.086033,1.2967 -6.193476,1.48891 -2.094685,0.36355 -12.501815,0.66448 -14.718128,0.42529 z m 6.481142,-15.79605 c 1.624656,-0.0884 3.014025,-0.22104 3.087488,-0.29456 0.07349,-0.0735 0.04311,-0.3699 -0.06772,-0.65819 -0.267193,-0.69633 -1.383933,-0.94855 -2.433313,-0.54956 -0.466391,0.17702 -2.134998,0.32044 -3.708014,0.31816 -2.786226,-0.005 -4.153587,0.33451 -4.153587,1.0303 0,0.22602 0.486868,0.26913 1.431618,0.12806 1.134955,-0.17012 1.470641,-0.11295 1.619827,0.27595 0.134986,0.35176 0.341037,0.4085 0.729005,0.20108 0.297419,-0.15935 1.87007,-0.3622 3.49472,-0.45069 z m -9.657297,-0.87301 c 0,-0.69747 -0.126229,-0.7577 -1.588064,-0.7577 -1.308296,0 -1.572602,-0.0935 -1.50028,-0.53171 0.0531,-0.32134 -0.198296,-0.62061 -0.635232,-0.75636 -0.397635,-0.12338 -1.12206,-0.5056 -1.609759,-0.84915 -0.606877,-0.42754 -1.144933,-0.55987 -1.70483,-0.41937 -0.902677,0.22648 -2.078316,-0.5584 -1.824994,-1.21851 0.08051,-0.21013 -0.819288,-1.00036 -2.006512,-1.76263 -3.36488,-2.16059 -3.934557,-2.57435 -5.90515,-4.28916 -3.642878,-3.17005 -7.264457,-8.359944 -8.619854,-12.352619 -0.696402,-2.051451 -0.905673,-3.471013 -1.194002,-8.099157 -0.454644,-7.298162 -0.484119,-6.881012 0.86749,-12.282595 1.219494,-4.873552 2.105859,-6.997158 4.326164,-10.364773 1.549706,-2.350542 5.963539,-7.00147 7.577659,-7.984732 0.612035,-0.37308 2.069593,-1.368868 3.239027,-2.213517 2.475781,-1.788017 6.96512,-4.078601 9.466685,-4.830254 0.977061,-0.293653 4.032701,-0.673587 6.933817,-0.862439 5.39747,-0.350843 7.635839,-0.112101 10.852623,1.15927 0.611408,0.24191 2.326531,0.891171 3.811379,1.443348 1.484848,0.552086 3.128489,1.318398 3.652569,1.702825 0.524062,0.384427 2.013514,1.32103 3.309872,2.081352 3.208668,1.881738 6.75237,5.716885 9.604316,10.394048 0.65679,1.077122 1.29104,2.363429 1.40951,2.858555 0.11851,0.495125 0.31626,1.043081 0.43948,1.217776 0.41161,0.583222 1.35854,4.427534 1.46911,5.964198 0.0599,0.834666 0.26076,2.73751 0.44607,4.228514 0.37774,3.039604 0.13675,7.047895 -0.52083,8.664758 -0.23963,0.589087 -0.43105,1.446618 -0.42551,1.905672 0.008,0.732398 0.0584,0.771063 0.40495,0.315883 0.21718,-0.285489 0.67712,-0.576227 1.02215,-0.64645 0.51237,-0.103915 0.61001,-0.345389 0.53288,-1.317714 -0.0656,-0.825765 0.10462,-1.443124 0.55584,-2.016678 0.79689,-1.013127 0.83954,-2.191272 0.0944,-2.609512 -0.52928,-0.297284 -0.52923,-0.357649 9.6e-4,-1.257625 0.30628,-0.520043 0.46451,-1.186187 0.35166,-1.480248 -0.11278,-0.294107 -0.0177,-1.52645 0.21063,-2.738418 0.39615,-2.099458 0.38216,-2.263669 -0.29586,-3.469961 -0.69996,-1.245418 -0.70269,-1.293299 -0.16543,-2.910978 l 0.54628,-1.644686 -0.9975,-0.832758 c -0.92915,-0.775661 -1.0011,-0.983623 -1.0502,-3.034292 -0.0431,-1.796597 -0.20768,-2.435143 -0.89514,-3.472006 -0.46336,-0.698732 -1.01973,-1.884282 -1.23641,-2.634617 -0.28295,-0.979723 -0.62467,-1.451928 -1.21246,-1.675413 -1.73614,-0.660107 -2.63411,-1.56848 -2.84325,-2.876301 -0.11156,-0.697235 -0.43321,-1.532805 -0.714964,-1.856823 -1.143317,-1.314948 -6.3231,-5.601422 -7.351223,-6.083475 -3.481473,-1.632249 -4.755258,-2.144438 -6.18323,-2.486204 -0.873449,-0.209232 -1.802459,-0.571375 -2.064505,-0.805253 -0.618986,-0.552359 -4.165908,-1.889546 -6.193489,-2.334973 -2.385221,-0.523901 -10.04836,-0.172921 -12.225877,0.560256 -0.962047,0.324062 -2.964048,0.907692 -4.448898,1.29743 -3.093171,0.811923 -6.080816,2.20925 -7.46394,3.490886 -0.524059,0.48564 -1.238693,0.972776 -1.588069,1.082475 -0.349388,0.109842 -1.629741,1.126049 -2.845253,2.25836 -1.215511,1.132359 -2.323191,2.058795 -2.461511,2.058795 -0.46886,0 -4.062798,3.808231 -4.062798,4.305081 0,0.271414 -0.850976,1.482472 -1.891067,2.690898 -1.111474,1.291393 -2.02833,2.706963 -2.224034,3.433743 -0.183136,0.680078 -0.754429,1.766913 -1.269556,2.415082 -0.515129,0.648216 -1.165913,1.989533 -1.446189,2.980691 -0.280265,0.991205 -0.720427,2.261765 -0.978115,2.823563 -1.462012,3.187205 -1.820514,4.967867 -1.808623,8.983471 0.0064,2.183608 0.18005,4.613341 0.385744,5.3994 0.205694,0.786144 0.487096,2.436198 0.62535,3.666818 0.138253,1.230619 0.480624,2.659895 0.760828,3.176119 0.280175,0.516278 0.67144,1.295924 0.869418,1.732683 0.197978,0.436638 0.562275,1.198681 0.809562,1.693201 0.247267,0.494538 0.449647,1.227092 0.449647,1.627759 0,1.44045 0.417423,2.771284 0.918598,2.928635 1.625917,0.510386 1.933115,0.851413 2.134505,2.369609 0.170418,1.284757 0.366316,1.625197 1.22713,2.133137 0.670337,0.39576 1.090678,0.9361 1.216304,1.5643 0.141659,0.70823 0.547243,1.15578 1.547438,1.70755 0.745506,0.4112 1.532465,1.10434 1.748815,1.54034 0.534308,1.07662 1.609115,1.90429 2.473,1.90429 0.392777,0 1.363625,0.5717 2.157451,1.27041 1.493097,1.31428 2.083136,1.51781 2.677485,0.92344 0.461944,-0.46198 1.685695,0.17748 1.685695,0.88133 0,0.2814 0.50981,1.13409 1.132917,1.89449 1.244471,1.51875 1.725878,1.63494 4.120284,0.99452 1.204391,-0.32224 1.497448,-0.31317 1.724582,0.0546 0.382023,0.61807 2.263584,1.20957 3.027084,0.95166 0.397679,-0.13433 0.63522,-0.49796 0.63522,-0.97228 z m 18.265386,-0.28595 c 0.270821,-0.5061 0.237463,-0.6803 -0.159436,-0.83262 -0.556648,-0.21331 -1.832146,0.76305 -1.563715,1.19737 0.313396,0.50709 1.377057,0.2823 1.723177,-0.36491 z m 9.572298,-0.70997 c 0.219074,0.21831 0.610601,0.39711 0.870112,0.39711 0.633469,0 1.942043,-1.25987 1.942043,-1.86975 0,-0.26823 0.381378,-0.79259 0.847505,-1.16434 0.561613,-0.44797 0.779264,-0.85355 0.645198,-1.20294 -0.305769,-0.79681 -0.651211,-0.64199 -1.314187,0.58907 -0.481332,0.89382 -0.844585,1.15524 -1.822296,1.3116 -1.311632,0.2097 -3.319309,2.07523 -2.923178,2.71618 0.130851,0.21195 0.429269,0.053 0.783869,-0.4162 0.458377,-0.60664 0.652114,-0.67864 0.970934,-0.36084 z m -6.127119,-1.27955 c 0.250405,-0.65789 0.374027,-1.27743 0.274733,-1.37671 -0.324154,-0.32453 -1.964962,0.66132 -2.077949,1.24799 -0.350568,1.82028 1.11944,1.92525 1.803216,0.12842 z m -13.441572,-1.22033 c 1.333022,-0.47387 2.883288,-0.70831 5.22964,-0.79077 3.22265,-0.11347 3.361706,-0.14892 4.128999,-1.03927 0.436712,-0.50707 1.355944,-1.0759 2.042744,-1.26399 0.81586,-0.22329 1.715878,-0.85081 2.596434,-1.80988 1.052642,-1.1466 1.492354,-1.42211 2.008388,-1.25825 0.688347,0.21831 0.756101,0.12616 1.121144,-1.53199 0.193582,-0.87932 1.910659,-2.74873 2.524666,-2.74873 0.168212,0 0.63121,-0.30546 1.028974,-0.679397 0.397714,-0.37352 1.04948,-0.8421 1.448252,-1.040895 0.522481,-0.260518 0.801629,-0.780654 0.999121,-1.861551 0.171513,-0.938509 0.43947,-1.500036 0.716097,-1.500036 0.86231,0 1.712526,-1.229698 1.712526,-2.476896 0,-0.980041 0.24401,-1.460451 1.300196,-2.559594 1.05495,-1.097894 1.26205,-1.50511 1.09799,-2.158773 -0.15465,-0.616578 -0.009,-0.983759 0.61624,-1.564209 0.75894,-0.703413 0.78394,-0.811117 0.344,-1.482711 -0.50352,-0.768386 -0.41452,-1.065536 0.8519,-2.843939 0.46421,-0.651836 0.4981,-0.9543 0.20211,-1.803398 -0.29293,-0.840248 -0.26529,-1.120057 0.15692,-1.586498 0.6441,-0.711756 0.64847,-1.219818 0.0157,-1.85242 -0.36347,-0.363549 -0.48949,-1.102764 -0.46989,-2.756437 0.0597,-5.050423 -0.64499,-9.406066 -1.52226,-9.406066 -0.13363,0 -0.5661,-0.607458 -0.9608,-1.349852 -0.39474,-0.742483 -1.1021,-2.060564 -1.571983,-2.929133 -0.469863,-0.868568 -1.354554,-1.913736 -1.965936,-2.322628 -0.611418,-0.408934 -1.364963,-1.234204 -1.674574,-1.834128 -0.398858,-0.772848 -1.113566,-1.368732 -2.452446,-2.044542 -1.039261,-0.524627 -2.085091,-0.953896 -2.324062,-0.953896 -0.238956,0 -0.5955,-0.353111 -0.792263,-0.785239 -0.196819,-0.431629 -0.827194,-0.983897 -1.400868,-1.226626 -0.573691,-0.24282 -1.304629,-0.735131 -1.624318,-1.094095 -0.362315,-0.407121 -1.174734,-0.734405 -2.157103,-0.869522 -0.930576,-0.128 -1.933935,-0.518001 -2.4503,-0.952534 -0.480951,-0.404851 -1.439777,-0.830625 -2.130709,-0.946499 -0.690934,-0.116184 -1.756486,-0.393503 -2.367889,-0.61717 -0.795052,-0.290931 -2.851893,-0.38125 -7.221832,-0.317708 -5.694596,0.08307 -6.223862,0.141155 -7.781571,0.859491 -1.686522,0.777477 -3.599371,2.193501 -5.641557,4.176363 -0.611407,0.593706 -1.570698,1.307823 -2.131748,1.586999 -1.368456,0.680892 -6.258062,5.464807 -7.007661,6.85614 -0.329419,0.611408 -0.944751,1.284812 -1.367417,1.496316 -0.99238,0.496803 -1.880151,1.594259 -1.880151,2.324307 0,0.315891 -0.643164,1.32761 -1.429266,2.248556 -0.786096,0.920946 -1.429264,1.871164 -1.429264,2.111579 0,0.24055 -0.333319,0.89217 -0.740718,1.448295 -1.413434,1.92926 -1.863834,4.362814 -1.6861,9.110237 0.201927,5.3941 0.598463,7.700108 1.474784,8.576388 0.544706,0.54469 0.628037,0.872025 0.429541,1.687346 -0.394456,1.620356 -0.249493,2.742698 0.436894,3.382093 0.351657,0.327699 0.939426,1.214649 1.306126,1.971114 0.366679,0.756465 1.120457,1.871527 1.675026,2.477939 0.554567,0.606326 1.102273,1.463909 1.217129,1.905655 0.139749,0.537397 0.648335,1.004427 1.536991,1.411274 0.731361,0.33494 1.418572,0.90565 1.529371,1.27046 0.347253,1.1433 1.131906,1.77399 2.206885,1.77399 0.783846,0 1.268413,0.27232 2.030618,1.1402 0.786795,0.89613 1.32064,1.18593 2.494,1.35376 1.267961,0.1811 1.607707,0.39078 2.254706,1.39075 0.575211,0.88887 1.158727,1.30843 2.382526,1.71303 0.891403,0.29456 1.792872,0.77857 2.003271,1.07532 0.537898,0.75844 5.291829,1.0964 6.283464,0.4466 0.622604,-0.40802 0.756763,-0.37581 1.433015,0.34403 0.904456,0.9628 0.970611,0.9652 3.346115,0.12076 z m -6.994948,-3.15057 c -1.220838,-0.32498 -2.721579,-0.87214 -3.33495,-1.21618 -0.613381,-0.34403 -1.866131,-0.92104 -2.7839,-1.28217 -4.307845,-1.69517 -8.369503,-5.12192 -11.517346,-9.717029 -0.837687,-1.222764 -1.774132,-3.009368 -2.080975,-3.97012 -0.306859,-0.960838 -0.74644,-2.175715 -0.97688,-2.699741 -0.598279,-1.360654 -1.216095,-6.257397 -1.142078,-9.05201 0.105079,-3.967176 1.91687,-11.139166 3.367925,-13.331851 0.460358,-0.695644 0.837009,-1.345131 0.837009,-1.443347 0,-0.367182 1.465157,-2.273747 3.008692,-3.914846 3.09038,-3.285647 8.591763,-6.328564 13.507274,-7.471088 5.742757,-1.334828 13.089622,-1.455012 17.177005,-0.281399 3.213824,0.923033 6.93552,3.285284 9.260488,5.877736 4.164205,4.643306 5.705877,7.690716 6.717179,13.277795 0.298558,1.649359 0.689911,3.552342 0.869695,4.228878 0.324471,1.220951 0.226751,2.730836 -0.413612,6.392697 -1.011163,5.781921 -3.164843,10.133158 -7.173941,14.494023 -5.196638,5.652612 -11.183826,9.803532 -14.140458,9.803532 -0.387016,0 -1.704078,0.21194 -2.926824,0.47089 -2.905197,0.61534 -5.515018,0.56283 -8.254289,-0.16613 z m 3.788029,-1.63706 c 1.146437,-0.30636 1.573301,-0.29684 2.224775,0.0518 0.699034,0.374 0.882608,0.3622 1.381473,-0.0889 0.318706,-0.28866 1.606287,-0.66687 2.887113,-0.84852 1.271482,-0.18018 2.576777,-0.46971 2.900657,-0.64302 0.323882,-0.17342 0.93806,-0.31546 1.364879,-0.31546 0.426772,0 0.956152,-0.21694 1.176301,-0.48231 0.220126,-0.26506 0.861506,-0.70114 1.425261,-0.96866 1.210326,-0.57432 2.0192,-1.29288 3.204014,-2.84625 0.478099,-0.626791 1.298025,-1.361414 1.822105,-1.632428 0.524061,-0.271416 1.787021,-1.342548 2.806558,-2.38127 1.534774,-1.563619 1.853716,-2.076578 1.853716,-2.981409 0,-0.80281 0.295013,-1.419337 1.111637,-2.323264 0.6114,-0.676773 1.111656,-1.536719 1.111656,-1.91092 0,-0.374445 0.141798,-0.928621 0.31531,-1.231941 1.936638,-3.387775 2.441307,-11.861907 0.967058,-16.2382 -0.355868,-1.056471 -0.647109,-2.226363 -0.647109,-2.599759 0,-0.373537 -0.353574,-1.098954 -0.785694,-1.612461 -0.43212,-0.513598 -0.935068,-1.488553 -1.117651,-2.166588 -0.295325,-1.096821 -1.849648,-2.867273 -2.517159,-2.867273 -0.133457,0 -0.631419,-0.71407 -1.106424,-1.58686 -0.604067,-1.109799 -1.120448,-1.649995 -1.717964,-1.796957 -0.469863,-0.115732 -1.568919,-0.811789 -2.442367,-1.547012 -1.695931,-1.427461 -2.610613,-1.677044 -8.893218,-2.426699 -3.826342,-0.456546 -6.062544,-0.391689 -11.11651,0.320884 -3.658204,0.515915 -9.044692,3.026806 -11.474446,5.34889 -5.949878,5.686115 -5.607707,5.264378 -6.822283,8.409145 -0.630037,1.631385 -1.299954,3.466378 -1.488697,4.077784 -0.991772,3.212708 -1.333605,8.539495 -0.695434,10.836974 0.175648,0.63234 0.450647,2.195281 0.611113,3.473236 0.481347,3.833518 4.007629,10.035585 6.413102,11.279446 0.503027,0.260069 1.495162,1.102805 2.20474,1.872612 0.721919,0.7832 1.704435,1.4906 2.230782,1.60626 0.517334,0.11399 1.758248,0.62125 2.757563,1.12813 0.999324,0.50678 2.021194,0.92331 2.270823,0.92557 0.249627,0.002 0.926682,0.52018 1.504575,1.15111 0.810305,0.88458 1.218538,1.10497 1.784176,0.96302 0.403444,-0.10133 1.155622,-0.0581 1.671572,0.0957 1.27901,0.3817 1.225763,0.3826 2.824021,-0.0458 z m -4.026577,-4.53133 c -2.516003,-0.55072 -5.597572,-1.962747 -6.831954,-3.130553 -1.303431,-1.23307 -1.306325,-1.5978 -0.01042,-1.313178 1.138449,0.250074 2.000299,0.678214 2.948355,1.46462 0.349388,0.290026 1.564254,0.913244 2.699728,1.385261 1.782725,0.74117 2.523924,0.86127 5.430691,0.8801 2.867642,0.018 3.562947,-0.0808 4.69459,-0.67064 0.730626,-0.380807 1.645593,-0.687837 2.03326,-0.682297 0.6975,0.009 0.698218,0.0139 0.06963,0.490317 -1.089311,0.82345 -5.631617,2.04272 -7.480347,2.00796 -0.951767,-0.0182 -2.550851,-0.21195 -3.553525,-0.43164 z m 14.686434,-3.483571 c 0,-0.153441 2.810656,-2.086935 3.03327,-2.086935 0.48448,0 -0.02906,0.66772 -1.065245,1.386025 -1.086692,0.753093 -1.968025,1.066943 -1.968025,0.70091 z M 66.848661,96.531837 c -3.918253,-0.856227 -7.157009,-3.578246 -8.71387,-7.32354 -1.238781,-2.980054 -1.85867,-6.334726 -1.725877,-9.339933 0.228886,-5.179731 2.848327,-8.716776 8.20941,-11.085153 1.659545,-0.733089 3.446126,-1.525952 3.970185,-1.761827 3.19491,-1.438175 6.876983,-1.284495 9.406294,0.392596 1.950938,1.293526 3.486729,2.210885 4.568765,2.729023 1.176551,0.563341 3.055701,2.384669 3.529144,3.420536 0.974357,2.131775 1.393878,3.215341 1.393878,3.600221 0,0.23329 0.288254,1.326614 0.640595,2.429424 0.542951,1.699602 0.591154,2.274699 0.316351,3.773379 -0.399363,2.177974 -1.034882,3.082892 -3.026259,4.309063 -0.851075,0.524098 -2.627423,1.988458 -3.947458,3.254197 -2.66535,2.555788 -5.20681,4.215225 -8.203752,5.356648 -2.235109,0.851241 -3.435038,0.897116 -6.417417,0.245558 z m 7.933338,-3.065149 c 3.358597,-1.808273 4.279582,-2.585244 5.383573,-4.541379 1.063177,-1.883812 1.192988,-2.900449 0.536722,-4.203409 -0.237601,-0.471706 -0.529456,-1.643729 -0.648588,-2.604533 -0.314213,-2.534258 -0.810823,-7.176473 -0.996155,-9.311927 -0.08823,-1.016394 -0.372581,-2.171943 -0.631996,-2.567806 -0.92157,-1.406495 -3.543629,-2.156105 -7.011899,-2.004557 -2.243318,0.09804 -2.957961,0.290928 -5.558259,1.499672 -3.508578,1.631159 -5.953001,3.775327 -7.126105,6.250862 -2.018006,4.258469 -0.122736,13.036108 3.504075,16.228529 0.94253,0.829726 2.133519,1.467766 3.567398,1.911285 4.075484,1.260665 5.631346,1.146879 8.981234,-0.656737 z M 67.953288,91.1037 c -2.822324,-0.661047 -4.341201,-2.366187 -5.175524,-5.810195 -0.346983,-1.432369 -0.138427,-4.091538 0.532379,-6.788108 0.334455,-1.344539 1.792654,-3.035293 3.531479,-4.094759 0.611426,-0.372625 2.026267,-1.363556 3.144117,-2.202352 1.117852,-0.83875 2.279498,-1.525045 2.581438,-1.525045 0.874928,0 1.362492,0.845559 1.170342,2.029702 -0.09568,0.589348 -0.06436,1.19558 0.06953,1.347172 0.463977,0.525626 2.257476,6.640373 2.689294,9.168925 0.504853,2.956142 0.230429,4.02717 -1.492175,5.824269 -2.036178,2.124191 -4.13282,2.733922 -7.050833,2.050391 z m 2.630869,-2.812121 c 0.389237,-0.272771 0.921289,-0.90869 1.182319,-1.413479 0.669193,-1.294083 0.590461,-4.336138 -0.147914,-5.713621 L 71.0227,80.05291 70.717746,80.846906 c -0.167708,0.436623 -0.554491,1.916911 -0.8595,3.289415 -0.401585,1.807041 -0.815575,2.792606 -1.500886,3.573121 l -0.94633,1.077856 h 1.232681 c 0.677981,0 1.55116,-0.222845 1.940417,-0.495719 z m 13.111528,-7.561227 c -0.378119,-0.781061 -0.89472,-1.592126 -1.148011,-1.802312 -0.384655,-0.319523 -0.456846,-0.231928 -0.438211,0.530118 0.03269,1.334875 0.387922,2.04005 1.263902,2.508845 0.427546,0.228754 0.829626,0.364017 0.893565,0.299565 0.064,-0.0636 -0.193123,-0.755333 -0.571239,-1.536443 z M 56.821609,95.569644 c -0.81811,-0.88278 -1.076442,-1.90649 -0.381885,-1.513208 0.823866,0.466491 1.826295,1.527178 1.826295,1.932537 0,0.666868 -0.598931,0.492939 -1.444438,-0.419382 z m 29.355766,-0.992848 c 0.165603,-0.30954 1.099455,-1.305724 2.075134,-2.213839 2.674058,-2.488782 4.471695,-6.375858 4.855177,-10.498428 0.261753,-2.813628 -0.766058,-9.293192 -1.81877,-11.466363 -0.500967,-1.034184 -1.060427,-1.97283 -1.243235,-2.085845 -0.182826,-0.11302 -0.486892,-0.494082 -0.675731,-0.846963 -0.309349,-0.578004 -0.280484,-0.607957 0.291035,-0.301824 1.344961,0.719836 2.511824,2.598081 3.043098,4.898517 0.288809,1.250724 0.754066,3.258548 1.033822,4.461937 0.797927,3.432382 0.236244,8.943759 -1.191486,11.690523 -0.882102,1.697111 -3.61003,5.066362 -4.826087,5.960611 -1.487143,1.093687 -1.982202,1.222643 -1.542957,0.402127 z M 55.101065,92.9371 c -0.398544,-0.744562 -0.413112,-0.973681 -0.06218,-0.973681 0.146647,0 0.429453,0.357658 0.628418,0.794 0.425139,0.933157 -0.07766,1.092697 -0.566259,0.179732 z m -2.234478,-5.439016 c 0,-0.18472 0.142929,-0.248269 0.317617,-0.139713 0.174694,0.108085 0.317617,0.259164 0.317617,0.336318 0,0.07716 -0.142926,0.139713 -0.317617,0.139713 -0.174695,0 -0.317617,-0.15153 -0.317617,-0.336318 z M 52.07685,83.72502 c -0.240551,-1.095129 -0.08946,-1.478331 0.450965,-1.144289 0.408072,0.251899 0.43358,1.118415 0.05079,1.722846 -0.204103,0.322243 -0.337767,0.168386 -0.501782,-0.578557 z m 1.315662,-10.977265 c 0.318615,-1.490551 1.521867,-3.989236 2.692916,-5.592209 1.416924,-1.939516 5.862791,-5.685249 6.736161,-5.675402 0.559935,0.0045 0.374896,0.277768 -1.012936,1.484196 -0.933911,0.812062 -2.291723,2.260448 -3.017341,3.218658 -2.607957,3.44382 -4.505291,5.976769 -5.048967,6.740267 l -0.553522,0.777297 z M 81.134291,62.13122 c -0.844306,-0.486821 -5.499119,-1.564259 -7.530909,-1.74322 -1.887254,-0.166109 -8.157679,0.474748 -9.470295,0.967966 -0.540479,0.203333 -0.570503,0.166578 -0.218853,-0.265966 1.651282,-2.032834 9.891565,-2.223231 15.291007,-0.353111 2.385311,0.826086 3.879636,1.700282 2.870558,1.679315 -0.255798,-0.0045 -0.679467,-0.13344 -0.941508,-0.284577 z m -40.972295,48.59024 c 0,-0.3749 -0.619459,-0.77562 -0.846968,-0.54815 -0.227525,0.22785 0.173371,0.84702 0.5481,0.84702 0.164354,0 0.298872,-0.13433 0.298872,-0.29864 z m 4.6313,-1.31782 c 0.593719,-0.65606 0.589661,-0.67182 -0.347755,-1.3464 -0.521695,-0.37535 -1.285288,-1.0144 -1.696861,-1.41987 -0.411568,-0.40576 -0.840351,-0.63769 -0.952842,-0.51589 -0.112518,0.12216 -0.02588,0.2855 0.192485,0.36355 0.218311,0.078 0.397,0.5894 0.397,1.13645 0,0.61033 0.276087,1.26757 0.714629,1.7012 0.896418,0.88637 0.961848,0.88949 1.693362,0.0813 z m 58.153664,-2.59172 c 0.35379,-0.39352 0.81768,-1.36365 1.0309,-2.15687 0.37543,-1.3967 0.4221,-1.43822 1.47665,-1.31514 1.03747,0.12112 1.47816,-0.29955 0.77135,-0.7364 -0.49744,-0.30727 -0.37184,-1.11166 0.1736,-1.11166 0.27013,0 0.73332,-0.42164 1.02929,-0.9376 0.29596,-0.51569 0.86103,-1.018627 1.25569,-1.117685 0.43364,-0.108965 0.71759,-0.421663 0.71759,-0.790511 0,-0.335867 0.14283,-0.698772 0.31755,-0.806756 0.17475,-0.108432 0.31763,-0.463535 0.31763,-0.790088 0,-0.719609 0.88507,-1.671376 1.30997,-1.408806 0.44444,0.274577 1.23092,-0.478847 1.23092,-1.179253 0,-0.330411 -0.17255,-0.877046 -0.3836,-1.214876 -0.33451,-0.535601 -0.2125,-0.787084 0.95286,-1.964112 1.38094,-1.39473 1.64367,-2.329155 0.96187,-3.420896 -0.47971,-0.768177 0.39937,-2.250141 1.33472,-2.250141 0.75117,0 0.85504,-1.004142 0.16318,-1.578285 -0.40694,-0.337675 -0.40345,-0.479056 0.0281,-1.137617 0.33325,-0.508614 0.42256,-1.071549 0.27592,-1.739142 -0.1557,-0.709171 -0.0679,-1.151511 0.31185,-1.571204 0.38106,-0.42119 0.52376,-1.146518 0.51118,-2.598989 -0.008,-1.108165 0.0157,-3.137639 0.0571,-4.509957 0.0577,-1.931575 -0.0506,-2.684814 -0.47917,-3.334982 -0.30454,-0.461902 -0.55467,-1.348035 -0.55582,-1.969154 -0.001,-0.696825 -0.29983,-1.532897 -0.77951,-2.183063 -0.95346,-1.292348 -1.27977,-2.639793 -0.83879,-3.463745 0.25838,-0.482826 0.19221,-0.797358 -0.29929,-1.422109 -0.34708,-0.44116 -0.71281,-1.278322 -0.81278,-1.860225 -0.0998,-0.581906 -0.29802,-1.34386 -0.44002,-1.693293 -0.14197,-0.349027 -0.51271,-1.348354 -0.82365,-2.219964 -0.33082,-0.927345 -1.01775,-1.981364 -1.65597,-2.540939 -0.59984,-0.525852 -1.19571,-1.233707 -1.32412,-1.572972 -0.12842,-0.33904 -0.70285,-0.774891 -1.27653,-0.968013 -0.64472,-0.216949 -1.30054,-0.785374 -1.71731,-1.488009 -2.06893,-3.488207 -4.70908,-6.272058 -6.951003,-7.329207 -1.089633,-0.513825 -2.313144,-1.349307 -2.718834,-1.856641 -0.405705,-0.507199 -0.86528,-0.922308 -1.021241,-0.922308 -0.155874,0 -0.948675,-0.421644 -1.761598,-0.937328 -1.078273,-0.683844 -1.718607,-0.889266 -2.367402,-0.759505 -0.633243,0.126628 -1.581518,-0.15523 -3.293295,-0.978405 -2.098212,-1.009176 -5.429157,-1.952271 -6.38195,-1.806987 -2.021889,0.308176 -3.260281,0.266874 -3.864411,-0.128452 -0.957585,-0.627475 -8.109926,-0.392596 -9.168539,0.300914 -0.39718,0.260067 -1.343342,0.457954 -2.102585,0.438891 -1.498954,-0.03632 -3.976247,0.530709 -4.609567,1.056334 -0.217584,0.180641 -0.547588,0.23465 -0.733343,0.119817 -0.482467,-0.298192 -2.458994,0.415289 -2.669379,0.963427 -0.09731,0.253713 -0.412657,0.46104 -0.700787,0.46104 -0.288115,0 -1.012218,0.428451 -1.609091,0.952852 -0.596875,0.524082 -1.226628,0.952853 -1.399446,0.952853 -0.172781,0 -1.029194,0.491811 -1.903044,1.092915 -0.873852,0.601104 -1.883002,1.186321 -2.242562,1.300426 -0.501624,0.159315 -0.609537,0.383518 -0.463753,0.964424 0.159209,0.634509 0.04792,0.788733 -0.687721,0.95308 -1.743826,0.389418 -3.577425,1.399639 -3.577425,1.970698 0,0.30863 -0.429813,1.082703 -0.955136,1.719981 -0.525319,0.637322 -1.204227,1.732598 -1.508668,2.434053 -0.305772,0.704494 -1.177617,1.765958 -1.947969,2.371691 -0.859587,0.675901 -1.563223,1.566982 -1.834509,2.323172 -0.242049,0.674676 -0.472115,1.298201 -0.511261,1.385526 -0.03903,0.08759 0.06645,0.23011 0.23465,0.317707 0.16816,0.08715 0.854321,-0.627337 1.524708,-1.588041 0.670387,-0.96084 1.756144,-2.318588 2.412793,-3.017364 1.511134,-1.608058 7.138358,-5.756644 11.298679,-8.329854 2.952125,-1.825914 3.975326,-2.263899 8.681379,-3.716142 3.198635,-0.986982 6.782972,-1.382257 11.82589,-1.304056 l 4.923024,0.07625 3.742057,1.475573 c 2.058124,0.811608 3.883288,1.475618 4.055914,1.475618 1.797395,0 9.431293,4.708615 12.056225,7.436322 3.79986,3.948658 6.14054,6.550732 6.64284,7.384673 0.29848,0.495534 1.4129,2.973383 2.47662,5.506381 1.97583,4.705075 3.04896,8.853933 3.36821,13.022128 0.17692,2.309375 -0.51977,11.535845 -1.01923,13.498638 -1.24128,4.878149 -5.2393,12.864285 -7.73608,15.453052 -2.88934,2.99571 -3.567902,3.99337 -3.09978,4.55744 0.58599,0.70608 2.01623,0.58203 2.75516,-0.2392 z m -6.985084,-0.84002 c 0.381568,-0.2805 0.780428,-0.84375 0.886376,-1.25181 0.105828,-0.40804 0.566046,-1.11543 1.022459,-1.57184 0.49287,-0.49291 0.681082,-0.87942 0.463503,-0.952 -0.815149,-0.27141 -0.290009,-0.7044 0.854907,-0.7044 1.397059,0 2.095079,-0.60878 2.412469,-2.103996 0.1159,-0.54582 0.56053,-1.32107 0.98818,-1.722848 0.52059,-0.489031 0.77757,-1.077162 0.77757,-1.779428 0,-0.742892 0.21233,-1.188097 0.72772,-1.525772 0.40021,-0.262343 0.90971,-0.980091 1.13215,-1.59521 0.22239,-0.615084 0.68102,-1.266381 1.01915,-1.447348 0.72894,-0.389876 0.87492,-2.212328 0.17723,-2.212328 -0.24069,0 -0.623,-0.223315 -0.84967,-0.496589 -0.35473,-0.427549 -0.65865,-0.01808 -2.18278,2.94688 -0.97387,1.893856 -2.09225,3.890255 -2.4853,4.436334 -0.39305,0.546148 -0.71466,1.201756 -0.71466,1.456923 0,0.255531 -0.28584,0.827364 -0.635209,1.271526 -0.349386,0.444335 -0.635225,0.947209 -0.635225,1.117909 0,0.170647 -0.335414,0.530217 -0.745326,0.798807 -0.409893,0.26824 -0.927491,0.92821 -1.150179,1.46582 -0.222672,0.53756 -0.538972,0.9774 -0.702857,0.9774 -0.454014,0 -3.118707,2.30992 -3.118707,2.70348 0,1.13674 1.343138,1.22853 2.758216,0.1888 z m -61.480728,-2.12401 c -0.369312,-0.46948 -0.67144,-1.00178 -0.67144,-1.18279 0,-0.40984 -0.956846,-1.49087 -1.319685,-1.49087 -0.698778,0 -0.137299,1.40155 1.028538,2.56739 1.410842,1.41086 2.04373,1.48066 0.962587,0.1067 z m 3.972083,-0.9115 c 0.26238,-0.68372 -0.112519,-1.08953 -0.832464,-0.90121 -1.019603,0.26641 -0.728455,1.22254 0.407303,1.33729 0.136516,0.0139 0.327828,-0.18201 0.425183,-0.43572 z m -0.196889,-1.88206 c 0,-0.24055 -0.214406,-0.6154 -0.476427,-0.83295 -0.505072,-0.419377 -0.619898,-0.10843 -0.283621,0.76807 0.237191,0.6181 0.760056,0.66271 0.760056,0.065 z m -7.735874,-4.698541 c -0.442205,-1.280319 -1.081562,-2.971035 -1.420791,-3.757128 -1.150966,-2.66716 -2.009804,-9.706252 -1.627583,-13.339796 0.137802,-1.310138 0.276996,-4.182991 0.309221,-6.383982 0.05801,-3.957327 0.0738,-4.036755 1.420713,-7.146345 0.749132,-1.729467 1.823736,-4.430847 2.387998,-6.003004 0.564265,-1.572156 1.221375,-3.082314 1.460241,-3.35577 0.238827,-0.273683 0.525925,-0.955348 0.637909,-1.515332 0.111961,-0.559892 0.328101,-1.094957 0.480193,-1.188908 0.152137,-0.09397 0.276588,-0.399406 0.276588,-0.677853 0,-0.457501 -0.05688,-0.455639 -0.580834,0.01816 -0.319479,0.289114 -0.717776,0.525625 -0.885144,0.525625 -0.505769,0 -3.112037,2.63843 -3.529642,3.573173 -0.214636,0.480374 -0.536201,0.873469 -0.714636,0.873469 -0.178459,0 -0.324423,0.275045 -0.324423,0.610818 0,0.335862 -0.367544,1.047711 -0.816801,1.581595 -0.822206,0.977133 -0.805751,1.618905 0.04131,1.618905 0.697141,0 0.56913,0.303184 -0.826329,1.958307 -0.706211,0.837525 -1.492303,2.021306 -1.746884,2.630579 -0.540674,1.294025 -0.606201,2.9078 -0.12998,3.202134 0.400313,0.24736 0.08602,2.688084 -0.538837,4.18349 -0.236103,0.564976 -0.429224,1.396327 -0.429224,1.847336 0,0.451146 -0.198748,1.205931 -0.441659,1.677682 -0.242911,0.471705 -0.493043,1.643776 -0.555826,2.60457 -0.108381,1.658801 -0.07416,1.752374 0.679881,1.85669 1.330407,0.183816 1.588073,0.630776 1.588073,2.753612 0,1.477306 -0.123048,2.038781 -0.476426,2.174445 -0.758846,0.291381 -0.555336,1.0561 0.476426,1.790826 1.041063,0.741261 1.197624,1.422743 0.505088,2.19827 -0.449012,0.502845 -0.612931,1.074573 -0.542721,1.892866 0.02768,0.317707 0.335135,0.389857 1.117077,0.26323 0.972732,-0.157959 1.095256,-0.09209 1.239437,0.661793 0.088,0.460305 0.08383,1.306055 -0.0091,1.879416 -0.156273,0.962976 -0.07862,1.080255 1.0185,1.538666 0.653221,0.273239 1.258215,0.766039 1.344437,1.095738 0.133717,0.511462 0.971605,0.996686 1.310464,0.758949 0.05897,-0.04083 -0.254576,-1.122724 -0.696777,-2.403043 z m 4.762572,-0.205607 c -0.448514,-0.863127 -1.155691,-3.508356 -1.155691,-4.322792 0,-0.244619 -0.443749,-1.606731 -0.986129,-3.027076 l -0.986126,-2.582411 -0.781403,1.467854 c -0.75733,1.422656 -0.764288,1.494007 -0.225892,2.315636 0.3055,0.466352 0.564945,1.277226 0.576468,1.802035 0.01581,0.735542 0.182365,0.977225 0.725093,1.054396 0.532832,0.07577 0.755649,0.384872 0.915893,1.270466 0.373715,2.06523 1.345902,3.448179 2.116997,3.011334 0.133805,-0.07577 0.04404,-0.521057 -0.199202,-0.989442 z M 32.00652,80.598278 c -0.195663,-4.838196 0.1884,-9.277215 0.991403,-11.458145 0.234151,-0.63596 0.73662,-2.15683 1.116567,-3.379688 0.379933,-1.222813 1.181438,-3.184162 1.7811,-4.358593 0.599659,-1.174385 1.085149,-2.317816 1.078868,-2.540846 -0.01407,-0.504432 -1.572902,1.356249 -1.575075,1.88024 -8.58e-4,0.209233 -0.355061,1.044987 -0.78709,1.857504 -0.432038,0.81256 -0.880958,1.999245 -0.997627,2.63716 -0.116652,0.637867 -0.600534,1.660069 -1.075273,2.271431 -0.474732,0.611406 -1.035701,1.64255 -1.246592,2.291446 -0.210912,0.648897 -0.756663,1.4517 -1.212822,1.783976 -0.827699,0.602921 -0.828279,0.606505 -0.281762,1.758153 0.442839,0.9332 0.484324,1.381894 0.216858,2.345048 -0.538601,1.939383 -0.394548,2.909028 0.647935,4.36059 0.813527,1.13281 0.922637,1.479112 0.635229,2.016128 -0.445744,0.832888 -0.440207,1.726251 0.01685,2.729751 0.699334,1.534843 0.87889,0.445691 0.691261,-4.194155 z m 92.95869,1.696876 c 0,-0.07715 -0.14284,-0.228302 -0.31762,-0.336319 -0.17469,-0.108434 -0.3176,-0.04587 -0.3176,0.139713 0,0.184719 0.14285,0.336319 0.3176,0.336319 0.17472,0 0.31762,-0.06256 0.31762,-0.139713 z m 0.39928,-17.408135 c 0.10688,-0.971777 0.0157,-1.438808 -0.32665,-1.667513 -0.26126,-0.174286 -0.91657,-0.710622 -1.45626,-1.190998 -1.00078,-0.890853 -1.79251,-1.132901 -1.79251,-0.548 0,0.178825 0.35733,0.461358 0.79406,0.627428 0.89654,0.340855 0.92856,0.424821 0.45492,1.195353 -0.54205,0.881596 0.45237,2.933582 1.42167,2.933582 0.65487,0 0.77632,-0.181094 0.90476,-1.349852 z m -1.39376,-7.016718 c 0.41684,-0.502253 0.16127,-0.844244 -0.63075,-0.844244 -0.31156,0 -0.6808,-0.19607 -0.82049,-0.434806 -0.13971,-0.239188 -0.57557,-0.534611 -0.96862,-0.656657 -1.0434,-0.324062 -0.99741,0.999646 0.0485,1.397372 0.41973,0.159766 0.85696,0.442068 0.97158,0.627337 0.28792,0.465896 0.97549,0.422098 1.39974,-0.08896 z m -2.30741,-4.207636 c -0.14267,-0.37172 -0.32212,-0.400768 -0.82239,-0.132536 -0.71998,0.385335 -0.82176,0.964153 -0.26705,1.518826 0.28545,0.285485 0.47831,0.222397 0.82237,-0.268237 0.24722,-0.352655 0.36741,-0.855633 0.26704,-1.117106 z m -1.14472,-1.900078 c 0,-0.436167 -1.20605,-1.259076 -1.46535,-0.999827 -0.0774,0.07716 0.002,0.514915 0.17581,0.97255 0.32832,0.86344 1.28954,0.883818 1.28954,0.02723 z M 35.257776,49.700162 c 0.530645,-0.586308 0.613345,-0.599741 0.779466,-0.126176 0.145829,0.415745 0.366044,0.257344 1.022943,-0.735176 1.636456,-2.472857 6.317757,-7.053483 8.527331,-8.343969 1.180758,-0.689563 2.551228,-1.591535 3.0455,-2.004375 3.461049,-2.89069 9.964121,-5.958163 14.215928,-6.705593 1.409909,-0.247811 3.492502,-0.69932 4.627972,-1.003277 1.569879,-0.420282 3.195391,-0.542555 6.784818,-0.510283 5.412606,0.04857 8.535984,0.449782 11.589626,1.48828 1.180417,0.401675 3.338458,0.987573 4.795625,1.302467 2.356264,0.509058 2.947558,0.794679 5.343511,2.580925 1.481738,1.104716 2.890144,2.00855 3.129793,2.00855 0.239648,0 0.435716,0.112102 0.435716,0.249174 0,0.137071 0.464515,0.518091 1.032245,0.846783 1.85364,1.073219 5.87411,4.523256 6.12549,5.256391 0.0898,0.261882 0.48138,0.706311 0.87002,0.987211 0.6673,0.482325 0.71011,0.473475 0.7688,-0.158846 0.0346,-0.368543 0.10565,-1.008134 0.15883,-1.421972 0.0617,-0.480011 -0.12511,-0.882457 -0.5159,-1.111661 -0.9476,-0.555671 -2.06603,-1.889501 -2.07713,-2.477124 -0.0173,-0.924531 -0.36601,-1.499991 -0.80601,-1.331152 -0.23416,0.08988 -0.5847,-0.133439 -0.77893,-0.496487 -0.43077,-0.80489 -1.53516,-0.859038 -2.1223,-0.103934 -0.4117,0.529392 -0.44814,0.529392 -0.76543,0 -0.18323,-0.305453 -0.68338,-0.555808 -1.11143,-0.555808 -0.941774,0 -1.009406,-0.485457 -0.14301,-1.026514 0.86304,-0.539015 0.79865,-1.334284 -0.15883,-1.961577 -0.436708,-0.28639 -0.794053,-0.684387 -0.794053,-0.884952 0,-0.603327 -1.009095,-1.526406 -1.668682,-1.526406 -0.339568,0 -1.025151,-0.436168 -1.523581,-0.970055 -0.768613,-0.822818 -1.06526,-0.940734 -1.953704,-0.776569 -0.820256,0.151599 -1.284836,0.01816 -2.141463,-0.617987 -0.601669,-0.446608 -1.316307,-0.816057 -1.58807,-0.821593 -0.271779,-0.0045 -0.771565,-0.219672 -1.110646,-0.476472 -0.339082,-0.256435 -1.070194,-0.46626 -1.62465,-0.46626 -0.554471,0 -1.348975,-0.267327 -1.765593,-0.593025 -0.416602,-0.326331 -1.329161,-0.683298 -2.02792,-0.793589 -1.532474,-0.241912 -1.283096,-0.245996 -4.602221,0.07307 -1.532522,0.147514 -3.246316,0.134795 -3.970179,-0.02724 -3.471343,-0.785373 -8.383826,-0.809428 -9.547743,-0.04675 -0.527676,0.345394 -1.121051,0.434353 -1.958544,0.293199 -1.170794,-0.197887 -3.823163,0.30727 -6.600949,1.256581 -0.698748,0.238736 -1.842166,0.522358 -2.540916,0.630197 -2.068148,0.319524 -2.317298,0.457 -3.052126,1.687211 -0.944519,1.581507 -2.20808,2.921601 -2.754766,2.921601 -0.246041,0 -0.826763,0.205149 -1.290436,0.455638 -0.463669,0.250535 -1.205992,0.531525 -1.649608,0.624523 -0.878286,0.183817 -1.306578,0.568516 -3.041963,2.73129 -0.630747,0.786103 -1.55284,1.689347 -2.049104,2.007191 -0.496256,0.318162 -0.985668,0.840564 -1.087584,1.161723 -0.101939,0.321339 -0.394276,0.664009 -0.649627,0.761955 -0.255391,0.09759 -0.464326,0.381704 -0.464326,0.63065 0,0.249173 -0.214362,0.534656 -0.476426,0.635188 -0.262065,0.100302 -0.476421,0.463221 -0.476421,0.805935 0,0.404397 -0.250854,0.658746 -0.71463,0.724602 -0.48446,0.06899 -0.750489,0.35765 -0.825955,0.895528 -0.06127,0.436622 -0.524269,1.406449 -1.028974,2.154969 -1.004612,1.489916 -1.416598,2.70474 -1.094166,3.226463 0.305819,0.494807 0.636383,0.413474 1.300367,-0.320432 z m 70.968134,-7.125829 c 0,-0.261884 0.21443,-0.476471 0.47642,-0.476471 0.26207,0 0.47643,0.214224 0.47643,0.476471 0,0.261881 -0.2144,0.476426 -0.47643,0.476426 -0.26206,0 -0.47642,-0.214227 -0.47642,-0.476426 z m 13.06051,7.270477 c 0.53983,-0.488545 0.53521,-0.550996 -0.10495,-1.416796 -0.36828,-0.498121 -0.78983,-0.831442 -0.93674,-0.740669 -0.48118,0.297284 -0.21667,2.668522 0.29774,2.668522 0.0985,0 0.43336,-0.229658 0.74394,-0.511057 z m -2.26161,-5.307405 c 0,-0.630332 -0.28683,-1.326114 -0.75481,-1.83077 -0.41514,-0.447968 -0.85599,-1.132857 -0.97969,-1.522548 -0.12825,-0.403944 -0.81987,-0.997695 -1.60877,-1.380941 -1.14924,-0.558396 -1.46776,-0.602692 -1.87882,-0.261428 -0.76423,0.634281 -0.59247,1.249092 0.53728,1.923132 0.56774,0.338585 1.72486,1.477298 2.5714,2.530138 0.84651,1.052839 1.66835,1.834354 1.82628,1.736727 0.15795,-0.09759 0.28715,-0.634962 0.28715,-1.194128 z m -7.90993,-8.531053 c 0.29856,-0.557849 0.26262,-0.89217 -0.18525,-1.723929 -0.58853,-1.092825 -1.34158,-1.506164 -3.65652,-2.007054 -0.79994,-0.172921 -1.67749,-0.615809 -1.99303,-1.005408 -0.31004,-0.382613 -0.6636,-0.59634 -0.78557,-0.474385 -0.31418,0.314532 0.61265,1.85791 1.35893,2.263488 0.34412,0.186995 1.37552,1.082433 2.29204,1.989762 1.83023,1.811753 2.41186,1.999336 2.96944,0.957526 z m -65.459097,-3.43674 c 1.085238,-0.0091 2.858528,-0.69628 2.858528,-1.108756 0,-0.244181 -0.309357,-0.660198 -0.687471,-0.924984 -0.618984,-0.433445 -0.780294,-0.427544 -1.619031,0.06127 -0.512353,0.298648 -1.355391,1.07508 -1.873424,1.725565 l -0.941873,1.182555 0.893422,-0.466033 c 0.491387,-0.255982 1.107811,-0.467666 1.369849,-0.469663 z m 5.842419,-3.459704 c 0.66392,-0.679896 1.729147,-1.459052 2.367167,-1.731374 2.697925,-1.151647 6.16362,-2.431875 6.583491,-2.431875 0.50968,0 0.530603,-0.06218 0.259611,-0.768081 -0.28403,-0.740124 -1.787811,-0.620939 -3.679582,0.291837 -0.905272,0.436623 -1.808684,0.794089 -2.007576,0.794089 -0.198883,0 -0.692907,0.352657 -1.097826,0.78365 -0.404895,0.430722 -1.466049,1.022067 -2.358071,1.313451 -0.892018,0.291383 -2.044092,0.743618 -2.560164,1.00491 l -0.938305,0.47511 0.938305,0.750744 c 0.516072,0.413022 1.016495,0.751515 1.11206,0.752379 0.09559,8.62e-4 0.716955,-0.554718 1.380874,-1.234659 z m 50.164726,-0.185633 c -0.368258,-0.257797 -0.759089,-0.825542 -0.868444,-1.261302 -0.261874,-1.04349 -1.273871,-1.551776 -2.595773,-1.303783 -1.280841,0.240552 -1.721422,0.788052 -0.82283,1.023019 0.35639,0.09304 1.407016,0.578184 2.334664,1.077713 1.805337,0.972096 3.125645,1.286127 1.952383,0.464353 z M 93.758914,25.02772 c 0.06256,-0.187448 -0.358474,-0.443884 -0.93545,-0.569786 -0.576993,-0.125725 -1.453083,-0.567653 -1.946874,-0.981718 -0.993334,-0.833076 -1.528864,-0.921399 -2.484455,-0.410298 -0.503228,0.269145 -0.773061,0.22285 -1.257068,-0.214681 -0.472487,-0.427543 -0.703517,-0.470524 -0.989963,-0.183816 -0.566288,0.566247 -1.422012,0.449331 -2.109607,-0.289115 -0.508746,-0.546094 -0.734382,-0.599967 -1.282837,-0.306361 -0.466415,0.249627 -0.849316,0.257799 -1.279874,0.02724 -0.33786,-0.18064 -1.476273,-0.329055 -2.529734,-0.329055 -1.622866,0 -1.970117,0.102126 -2.27361,0.669321 -0.553003,1.033324 0.06676,1.461321 1.41165,0.975 0.80603,-0.291383 1.740709,-0.308176 3.731759,-0.06809 3.860897,0.46644 4.620055,0.626249 6.205204,1.305691 0.784808,0.336315 1.672314,0.611678 1.97228,0.611678 0.299947,0 0.681134,0.128904 0.847104,0.286846 0.787032,0.748112 2.606304,0.422098 2.921475,-0.523221 z M 65.995431,23.520059 c 1.278461,-0.377619 1.280776,-0.380796 0.397224,-0.602692 -0.601429,-0.151148 -1.144247,-0.05583 -1.679065,0.294561 -0.465069,0.304546 -1.094407,0.441614 -1.529201,0.332232 -0.831842,-0.208779 -1.742207,0.04947 -1.742207,0.494172 0,0.34358 2.658293,0.04085 4.553249,-0.518591 z m 2.513683,-0.372171 c -0.218356,-0.08805 -0.575683,-0.08805 -0.794043,0 -0.21831,0.08805 -0.03993,0.160217 0.396999,0.160217 0.436712,0 0.615378,-0.07216 0.396999,-0.160217 z"
       id="path851-9" />
  </g>
</svg>
