<?xml version="1.0" standalone="no"?>
<!DOCTYPE svg PUBLIC "-//W3C//DTD SVG 20010904//EN"
 "http://www.w3.org/TR/2001/REC-SVG-20010904/DTD/svg10.dtd">
<svg version="1.0" xmlns="http://www.w3.org/2000/svg"
 width="700.000000pt" height="700.000000pt" viewBox="0 0 700.000000 700.000000"
 preserveAspectRatio="xMidYMid meet">
<metadata>
Created by potrace 1.14, written by Peter Selinger 2001-2017
</metadata>
<g transform="translate(0.000000,700.000000) scale(0.100000,-0.100000)"
fill="#000000" stroke="none">
<path d="M3185 6870 c-962 -97 -1824 -578 -2398 -1338 -381 -504 -615 -1101
-677 -1721 -13 -134 -13 -509 0 -642 61 -611 271 -1166 632 -1669 140 -196
342 -415 538 -584 506 -438 1108 -706 1800 -803 177 -24 644 -24 819 0 564 79
1006 243 1461 542 783 515 1331 1360 1484 2290 60 362 54 803 -15 1165 -130
679 -452 1286 -944 1775 -281 281 -543 469 -895 644 -336 167 -682 273 -1070
327 -136 18 -600 27 -735 14z m535 -680 c456 -41 889 -192 1259 -437 516 -342
885 -824 1088 -1418 210 -617 178 -1331 -87 -1925 -154 -346 -335 -606 -606
-870 -423 -412 -927 -657 -1539 -746 -181 -27 -533 -25 -722 5 -422 64 -792
208 -1143 444 -265 177 -545 458 -730 732 -439 650 -573 1470 -364 2230 127
462 382 888 730 1225 139 135 236 213 393 318 138 92 409 230 565 287 362 133
779 189 1156 155z"/>
<path d="M3555 6089 c-77 -10 -243 -27 -370 -39 -327 -30 -454 -61 -719 -172
-225 -93 -326 -153 -481 -283 -226 -188 -331 -301 -495 -530 -189 -263 -220
-324 -374 -731 -225 -594 -263 -845 -201 -1319 40 -311 83 -455 205 -694 70
-138 122 -217 285 -436 217 -291 424 -479 740 -673 217 -132 373 -191 710
-266 239 -53 350 -66 546 -66 319 0 483 15 667 60 336 83 508 164 787 369 324
237 585 484 752 708 130 175 272 434 331 604 40 114 108 393 121 494 37 295
15 671 -54 945 -28 110 -101 328 -151 448 -69 168 -210 423 -325 593 -109 159
-363 386 -651 579 -163 110 -250 156 -432 232 -163 67 -177 71 -420 122 -116
25 -238 51 -271 58 -52 12 -78 12 -200 -3z m248 -118 c18 -7 36 -7 57 0 26 10
35 8 65 -15 34 -26 79 -34 90 -16 9 15 36 12 57 -7 16 -14 24 -15 52 -5 49 18
69 15 112 -18 21 -16 60 -37 86 -45 59 -20 64 -29 38 -55 -24 -24 -84 -27
-127 -6 -153 74 -439 122 -600 102 -62 -8 -63 -8 -63 16 0 30 18 55 45 62 29
7 158 -2 188 -13z m-684 -47 c8 -8 -7 -15 -60 -30 -77 -20 -189 -30 -189 -16
0 19 39 33 73 27 22 -4 46 0 77 14 39 18 84 21 99 5z m81 -10 c0 -2 -9 -4 -21
-4 -11 0 -18 4 -14 10 5 8 35 3 35 -6z m-469 -35 c11 -11 19 -25 17 -31 -2 -5
-42 -22 -88 -37 -190 -62 -266 -100 -341 -167 -39 -35 -76 -61 -83 -57 -6 3
-28 20 -50 36 l-38 30 28 15 c16 9 67 31 114 49 47 18 102 47 122 64 21 16 80
47 131 68 137 58 157 61 188 30z m747 -106 c89 -14 123 -14 245 -4 154 13 214
5 288 -38 19 -10 54 -22 79 -26 25 -4 62 -16 82 -26 21 -11 42 -19 49 -19 6 0
37 -16 70 -36 50 -31 64 -36 98 -30 35 5 44 2 97 -39 31 -25 65 -45 74 -45 21
0 70 -44 70 -63 0 -7 18 -30 40 -50 22 -19 40 -41 40 -47 0 -7 -14 -25 -31
-41 -33 -30 -31 -49 3 -49 12 0 32 -10 44 -21 l23 -21 27 21 c35 28 60 27 88
-4 13 -14 30 -25 38 -25 20 0 32 -17 46 -65 11 -40 31 -66 91 -118 30 -26 31
-30 25 -80 -4 -29 -10 -56 -15 -61 -5 -6 -24 8 -46 33 -70 80 -147 152 -228
211 -44 33 -93 70 -109 82 -16 12 -46 31 -65 42 -20 10 -79 49 -131 87 -53 37
-109 73 -125 80 -27 10 -116 35 -415 114 -127 34 -242 45 -478 45 -206 0 -219
-1 -375 -35 -214 -46 -276 -63 -365 -97 -111 -42 -277 -130 -367 -193 -44 -31
-132 -91 -195 -133 -85 -56 -149 -110 -245 -207 -71 -71 -146 -154 -165 -183
-35 -51 -54 -64 -63 -39 -3 8 -15 2 -35 -17 -71 -66 -85 11 -21 119 23 39 49
90 58 115 12 33 23 46 39 48 14 2 27 15 36 35 7 18 20 38 29 46 10 7 17 18 17
24 0 5 9 19 21 31 11 12 80 82 152 157 125 130 136 138 210 168 43 17 85 31
92 31 20 0 81 63 121 126 19 29 44 59 55 65 12 6 67 22 123 35 55 13 142 35
191 50 63 18 119 26 185 28 56 2 105 8 120 16 58 31 218 32 408 3z m1110 -26
c12 -11 22 -26 22 -33 0 -7 14 -29 31 -49 43 -48 23 -45 -105 16 -125 59 -132
72 -52 89 43 9 77 1 104 -23z m-2441 -179 c13 -12 23 -28 23 -35 0 -17 -75
-52 -112 -53 -14 0 -47 -9 -72 -20 -25 -10 -46 -17 -46 -14 0 13 69 89 104
115 48 35 72 36 103 7z m2698 -43 c11 -8 59 -25 105 -39 90 -26 133 -59 146
-112 10 -41 -7 -78 -37 -82 -21 -2 -42 12 -100 65 -41 38 -91 81 -112 97 -39
30 -67 72 -67 102 0 15 2 15 23 0 12 -9 31 -23 42 -31z m-1237 -64 c12 -6 69
-11 132 -11 131 0 190 -13 345 -77 73 -31 127 -47 160 -48 60 -2 182 -65 244
-124 22 -21 81 -62 131 -92 105 -61 195 -150 274 -270 65 -97 81 -115 133
-140 23 -11 43 -24 43 -29 0 -4 25 -35 55 -69 73 -82 125 -191 150 -311 4 -19
20 -57 35 -85 23 -40 26 -55 18 -75 -15 -39 -3 -94 35 -157 21 -34 38 -78 42
-108 4 -27 15 -69 26 -92 17 -37 19 -67 19 -240 0 -179 -2 -203 -20 -238 -13
-25 -20 -59 -20 -95 0 -34 -6 -64 -15 -78 -15 -20 -14 -24 7 -52 25 -35 17
-63 -19 -68 -48 -7 -64 -52 -48 -129 11 -49 1 -73 -55 -137 -50 -57 -58 -74
-41 -91 4 -6 11 -22 15 -36 7 -32 -27 -81 -54 -77 -24 4 -60 -30 -60 -56 0
-12 -7 -30 -15 -40 -8 -11 -15 -28 -15 -38 0 -10 -17 -28 -38 -42 -21 -13 -50
-40 -65 -60 -16 -20 -35 -36 -43 -36 -17 0 -18 -23 -2 -50 16 -26 4 -35 -45
-35 l-41 0 -26 -68 c-28 -78 -56 -113 -94 -123 -34 -8 -75 2 -83 21 -11 31 9
63 97 160 108 118 179 228 271 420 120 252 146 344 170 620 20 225 17 413 -9
545 -50 248 -201 627 -296 741 -72 87 -260 284 -321 337 -118 103 -435 292
-489 292 -10 0 -99 32 -199 71 l-182 71 -285 -5 c-205 -4 -306 -10 -359 -21
-124 -26 -324 -93 -418 -140 -109 -55 -341 -209 -504 -336 -116 -90 -155 -130
-261 -268 -45 -58 -78 -79 -78 -49 0 35 54 120 108 172 33 31 72 80 87 108 15
29 40 68 54 87 14 19 38 57 52 85 28 55 58 76 153 111 57 20 61 24 58 51 -3
28 3 33 108 94 61 35 135 81 163 102 29 21 66 45 82 52 17 8 42 24 56 36 16
12 50 24 85 29 33 5 84 18 114 29 31 11 92 23 135 26 44 4 99 14 121 22 86 31
372 41 422 14z m147 -295 c61 -20 130 -49 155 -63 25 -14 90 -40 145 -58 167
-55 279 -113 395 -205 171 -137 226 -195 245 -263 20 -70 44 -100 110 -135 34
-18 55 -38 67 -62 9 -19 37 -77 62 -127 39 -79 47 -104 52 -170 8 -113 11
-121 56 -162 l41 -38 -22 -64 c-27 -80 -27 -89 6 -152 25 -51 26 -54 15 -133
-7 -44 -12 -105 -12 -135 -1 -33 -8 -68 -19 -89 -19 -35 -19 -35 5 -63 30 -36
30 -40 -6 -112 -19 -38 -30 -75 -30 -102 0 -34 -5 -45 -22 -54 -13 -6 -34 -21
-47 -33 l-23 -21 5 55 c3 30 13 79 21 109 28 97 30 238 7 446 -39 347 -97 504
-275 742 -109 146 -236 263 -391 359 -71 45 -148 90 -170 102 -59 29 -351 137
-415 153 -75 19 -378 16 -543 -5 -206 -26 -373 -100 -641 -284 -149 -101 -254
-195 -366 -327 -162 -192 -231 -343 -315 -695 -27 -112 -27 -120 -21 -320 13
-448 54 -597 232 -846 127 -178 234 -279 453 -427 103 -70 137 -98 147 -124
16 -37 50 -55 91 -48 34 6 163 -61 177 -92 8 -16 22 -22 69 -26 71 -6 85 -17
71 -54 -7 -22 -17 -29 -43 -31 -36 -4 -121 23 -121 38 0 17 -36 19 -90 5 -80
-22 -114 -19 -150 11 -37 32 -90 107 -90 128 0 9 -11 23 -25 32 -20 13 -29 14
-58 4 -38 -14 -58 -6 -142 60 -27 22 -66 43 -85 46 -26 5 -55 27 -111 83 -42
42 -90 87 -108 100 -18 13 -39 41 -47 62 -9 21 -35 54 -59 73 -36 30 -44 43
-54 94 -12 63 -29 85 -78 102 -37 13 -53 45 -64 131 -6 47 -23 97 -63 180 -53
109 -57 122 -87 304 -28 175 -30 205 -27 375 4 176 6 189 35 270 92 257 124
335 160 392 22 35 46 79 53 98 19 49 53 101 121 187 33 41 67 89 76 106 26 52
112 146 184 201 36 28 102 82 145 119 43 38 91 75 106 83 15 8 55 35 90 61 88
67 196 114 383 169 260 76 317 84 565 80 161 -2 167 -3 275 -40z m1539 -17
c52 -24 61 -33 120 -124 36 -54 46 -78 46 -110 0 -23 -3 -45 -7 -49 -5 -4 -51
37 -104 91 -52 54 -110 110 -127 124 -37 31 -39 42 -12 69 25 25 30 25 84 -1z
m-1592 -355 c57 -15 130 -41 163 -60 33 -18 88 -39 122 -47 36 -8 75 -25 94
-41 17 -15 49 -36 69 -46 21 -11 52 -37 70 -60 17 -22 38 -40 47 -40 8 0 51
-19 95 -42 61 -31 89 -53 118 -92 21 -28 63 -75 93 -104 37 -36 74 -88 113
-160 32 -59 69 -116 81 -128 45 -42 63 -134 72 -376 5 -147 9 -179 24 -195 21
-24 22 -66 1 -84 -13 -11 -15 -25 -9 -76 6 -58 4 -65 -23 -105 -42 -61 -46
-83 -26 -117 17 -29 17 -30 -14 -66 -24 -27 -32 -45 -32 -74 0 -32 -10 -50
-55 -106 -43 -52 -55 -74 -55 -101 0 -53 -25 -102 -64 -125 -29 -17 -38 -31
-52 -79 -15 -54 -22 -63 -83 -108 -36 -27 -80 -57 -98 -66 -42 -21 -82 -75
-103 -139 -16 -49 -20 -52 -48 -50 -25 2 -43 -9 -105 -65 -46 -42 -90 -73
-114 -80 -22 -7 -61 -31 -87 -53 l-47 -42 -162 -13 c-116 -10 -185 -21 -242
-39 -44 -13 -86 -25 -94 -25 -7 0 -29 14 -48 31 -26 22 -41 29 -57 24 -93 -29
-233 -24 -295 10 -14 8 -62 32 -106 53 -57 27 -89 50 -110 78 -40 53 -49 59
-115 72 -46 10 -69 22 -110 59 -37 33 -63 48 -97 54 -53 10 -79 30 -98 75 -8
21 -33 43 -72 67 -40 24 -64 47 -76 72 -9 20 -40 65 -67 101 -28 36 -60 85
-72 107 -11 23 -35 59 -52 80 -32 40 -36 70 -26 177 2 25 -4 46 -23 73 -31 46
-45 106 -57 256 -21 254 -6 430 46 519 15 26 39 70 52 97 14 28 49 81 78 118
30 38 58 86 64 107 9 35 77 110 99 110 4 0 27 27 50 60 62 88 232 252 341 330
53 37 102 76 110 86 28 33 162 135 214 161 85 44 141 51 418 52 246 1 262 0
360 -25z m1880 -77 c7 -15 5 -24 -13 -43 -12 -13 -28 -24 -35 -24 -21 0 -38
78 -24 108 l11 25 25 -24 c14 -13 30 -32 36 -42z m43 -126 c8 -19 -17 -43 -38
-36 -17 7 -40 62 -31 76 7 12 61 -20 69 -40z m-4015 -64 c0 -7 -7 -22 -15 -33
-8 -10 -15 -26 -15 -34 0 -8 -18 -53 -40 -100 -21 -47 -82 -194 -135 -328 -80
-202 -97 -254 -100 -310 -40 -647 -26 -825 89 -1132 69 -186 72 -200 46 -200
-10 0 -30 14 -42 31 -13 17 -45 42 -72 56 l-49 25 7 51 c3 29 2 66 -3 82 -7
27 -12 30 -47 30 -72 0 -79 19 -37 101 l27 53 -47 50 c-26 28 -47 54 -47 59 0
5 9 17 20 27 17 15 20 31 20 106 0 97 -7 108 -72 123 -27 6 -28 9 -28 64 0 33
11 95 25 142 14 46 25 93 25 105 0 11 9 47 20 78 25 72 37 171 21 181 -6 4
-11 31 -11 60 0 65 29 125 106 221 l55 70 -25 8 c-34 11 -33 32 4 87 16 25 30
51 30 59 0 7 11 27 25 45 14 17 49 60 77 95 29 37 76 79 112 102 67 42 76 46
76 26z m4068 -43 c2 -11 -6 -31 -16 -44 -17 -21 -22 -22 -36 -11 -21 17 -20
40 1 63 21 23 47 19 51 -8z m36 -119 c16 -14 39 -25 52 -25 31 0 39 -17 18
-41 -18 -21 -49 -25 -59 -9 -4 6 -24 19 -46 30 -29 16 -39 26 -39 45 0 34 35
33 74 0z m-3984 -112 c0 -3 -24 -58 -54 -122 -68 -148 -151 -401 -167 -511 -7
-52 -12 -183 -11 -335 1 -138 -3 -256 -7 -264 -7 -11 -13 -8 -26 12 -19 29
-22 81 -10 139 6 32 3 44 -24 87 -47 73 -54 105 -37 192 13 69 12 77 -7 126
l-20 54 35 32 c20 18 43 51 52 72 10 22 35 70 57 107 22 36 49 93 59 125 27
84 89 223 117 261 22 29 43 42 43 25z m3993 -115 c12 -6 46 -31 75 -56 49 -42
52 -47 52 -92 0 -66 -7 -80 -40 -80 -54 0 -90 86 -66 155 6 17 1 24 -28 38
-35 16 -43 27 -29 40 9 9 11 9 36 -5z m105 -977 c3 -8 -1 -12 -9 -9 -7 2 -15
10 -17 17 -3 8 1 12 9 9 7 -2 15 -10 17 -17z m-4278 -308 c23 -65 46 -144 51
-176 5 -31 21 -88 34 -126 29 -80 30 -91 10 -91 -35 0 -68 55 -94 155 -8 31
-17 43 -41 52 -24 9 -30 17 -30 40 0 15 -12 52 -25 82 l-26 55 33 63 c18 35
35 63 39 63 4 0 26 -53 49 -117z m3404 -4 c50 -29 49 -63 -4 -124 -22 -25 -40
-52 -40 -59 0 -7 -17 -33 -38 -57 -25 -28 -41 -58 -45 -82 -3 -21 -24 -65 -46
-99 -23 -33 -41 -68 -41 -78 0 -32 -48 -79 -88 -85 -64 -11 -87 -17 -74 -22
19 -7 14 -34 -10 -60 -12 -13 -34 -45 -48 -71 -14 -25 -40 -57 -59 -69 -54
-36 -111 -27 -111 18 0 19 75 90 128 122 18 11 40 33 48 51 9 17 31 47 48 66
38 41 91 124 101 159 4 14 22 47 39 75 18 28 59 101 91 161 74 140 95 175 105
175 5 0 25 -9 44 -21z m-3179 -539 c17 -19 15 -50 -4 -50 -12 0 -31 33 -31 54
0 22 13 20 35 -4z m-228 -52 c11 -13 30 -41 42 -63 12 -22 28 -50 37 -62 13
-19 14 -23 2 -23 -16 0 -100 84 -117 117 -26 51 -2 72 36 31z m250 -34 c9 -23
-11 -50 -33 -46 -28 5 -46 32 -33 49 16 18 58 16 66 -3z m247 -236 c35 -29 65
-58 65 -64 1 -5 -12 -23 -29 -39 l-30 -28 -34 36 c-24 25 -36 49 -40 81 -4 25
-11 48 -17 51 -15 10 -10 28 6 21 8 -3 44 -29 79 -58z m2522 -104 c5 -21 0
-33 -30 -63 -20 -20 -36 -42 -36 -48 0 -15 -47 -71 -71 -84 -15 -7 -28 -6 -51
6 -30 15 -33 14 -58 -10 -31 -30 -40 -31 -40 -7 0 36 95 110 163 126 17 4 41
25 63 56 20 28 40 50 45 50 5 0 12 -12 15 -26z m-2697 -38 c9 -10 9 -16 1 -21
-16 -10 -40 2 -40 20 0 19 24 20 39 1z m2231 -28 c-1 -22 -36 -92 -53 -107
-33 -26 -65 7 -53 54 10 41 106 88 106 53z m-173 -125 c6 -17 -33 -53 -57 -53
-32 0 -37 30 -10 52 25 20 61 21 67 1z m-282 -18 c46 -45 37 -50 -110 -60 -55
-3 -124 -11 -154 -17 -47 -9 -55 -8 -64 7 -8 15 -19 16 -73 10 -53 -5 -64 -4
-64 8 0 31 32 40 200 52 94 7 174 15 177 19 15 15 65 4 88 -19z"/>
<path d="M4962 5013 c2 -10 10 -18 18 -18 8 0 16 8 18 18 2 12 -3 17 -18 17
-15 0 -20 -5 -18 -17z"/>
<path d="M3316 4530 c-479 -55 -850 -274 -1034 -611 -110 -200 -181 -512 -169
-739 19 -357 131 -614 370 -851 108 -107 212 -175 387 -255 178 -81 261 -109
370 -124 92 -13 135 -9 350 26 168 27 228 53 380 161 115 83 330 289 415 398
158 203 239 414 276 720 l12 100 -42 200 c-49 230 -68 291 -122 395 -146 279
-422 507 -688 566 -80 18 -393 27 -505 14z m459 -99 c171 -27 194 -34 268 -86
34 -25 87 -58 117 -74 42 -22 64 -42 92 -87 21 -33 61 -79 89 -103 37 -32 60
-63 81 -109 16 -35 41 -82 55 -103 26 -39 60 -151 88 -287 20 -97 20 -342 0
-455 -8 -47 -26 -116 -41 -154 -14 -37 -29 -81 -33 -98 -10 -37 -31 -75 -76
-139 -21 -29 -35 -60 -35 -78 0 -16 -6 -41 -14 -56 -18 -34 -148 -160 -202
-196 -23 -15 -72 -61 -108 -102 -37 -40 -88 -86 -114 -101 -26 -15 -61 -37
-78 -50 -17 -13 -40 -23 -51 -23 -11 0 -39 -7 -63 -15 -23 -8 -83 -22 -133
-30 -51 -9 -111 -25 -134 -36 -37 -18 -47 -19 -79 -9 -29 10 -51 10 -105 0
-53 -10 -80 -10 -127 -1 -32 6 -66 9 -75 5 -20 -7 -54 10 -99 53 -35 35 -61
47 -242 121 -71 29 -105 51 -161 102 -39 36 -91 79 -116 96 -81 55 -205 250
-253 396 -15 46 -47 211 -67 348 -11 73 -5 191 17 323 15 91 95 325 141 408
32 59 287 312 363 361 159 102 344 169 525 192 153 19 394 14 570 -13z"/>
<path d="M3114 4206 c-65 -15 -118 -38 -130 -57 -5 -9 1 -10 22 -5 66 17 256
37 359 38 120 1 262 -24 393 -69 41 -13 76 -22 79 -19 11 10 -129 68 -227 93
-120 31 -395 42 -496 19z"/>
<path d="M2879 4101 c-127 -82 -258 -219 -319 -333 -30 -55 -70 -160 -70 -181
0 -6 64 75 141 179 80 106 179 225 225 271 46 44 84 84 84 87 0 12 -17 6 -61
-23z"/>
<path d="M3344 3910 c-69 -10 -105 -23 -257 -91 -164 -74 -226 -111 -292 -176
-125 -122 -177 -288 -155 -496 31 -295 150 -502 345 -598 140 -69 292 -87 407
-48 140 47 270 130 423 269 49 45 126 108 171 141 92 66 106 83 128 159 20 67
20 132 2 196 -8 27 -24 84 -35 126 -43 162 -127 280 -241 338 -25 13 -91 52
-148 88 -138 86 -226 110 -348 92z m204 -115 c110 -34 132 -73 152 -275 28
-277 43 -382 66 -460 23 -74 25 -89 14 -125 -19 -65 -67 -141 -119 -187 -53
-48 -211 -138 -284 -162 -125 -42 -344 8 -469 105 -158 125 -257 533 -179 739
27 73 94 155 172 215 81 61 268 152 339 164 75 14 244 6 308 -14z m336 -518
c30 -50 51 -106 43 -113 -11 -11 -67 28 -82 56 -20 38 -20 100 0 100 8 0 26
-19 39 -43z"/>
<path d="M3304 3653 c-249 -169 -295 -208 -333 -280 -20 -39 -42 -166 -43
-253 -2 -144 50 -264 143 -326 88 -59 239 -70 329 -24 50 26 130 103 156 151
40 73 12 257 -81 537 -20 60 -35 124 -35 151 0 51 -21 91 -49 91 -9 0 -49 -21
-87 -47z m38 -435 c26 -51 36 -181 19 -244 -17 -64 -75 -111 -146 -119 -31 -4
-59 -5 -62 -2 -3 4 7 20 21 38 43 51 63 98 95 228 30 119 37 141 46 141 3 0
14 -19 27 -42z"/>
<path d="M4170 3863 c0 -5 18 -32 39 -61 66 -87 107 -226 132 -442 19 -171 0
-305 -66 -447 -44 -96 -84 -152 -179 -251 -43 -45 -76 -85 -73 -88 21 -21 168
122 251 244 57 83 82 154 102 285 21 137 13 255 -31 440 -36 154 -68 232 -113
280 -30 32 -62 52 -62 40z"/>
<path d="M2430 3118 c0 -42 16 -71 25 -46 10 24 2 71 -12 76 -9 2 -13 -7 -13
-30z"/>
<path d="M2475 2910 c3 -5 8 -10 11 -10 2 0 4 5 4 10 0 6 -5 10 -11 10 -5 0
-7 -4 -4 -10z"/>
<path d="M2560 2699 c0 -9 9 -27 20 -40 15 -19 19 -20 20 -8 0 9 -9 27 -20 40
-15 19 -19 20 -20 8z"/>
<path d="M2620 2594 c0 -26 79 -99 92 -86 13 13 -19 61 -56 86 -31 20 -36 20
-36 0z"/>
<path d="M3873 2469 c-35 -23 -63 -46 -63 -51 0 -13 95 40 121 68 33 35 12 29
-58 -17z"/>
<path d="M2760 2452 c0 -19 88 -88 152 -120 138 -67 281 -98 408 -89 86 7 236
48 294 80 62 35 13 33 -76 -3 -73 -29 -83 -30 -222 -30 -122 0 -157 4 -208 21
-66 22 -146 62 -219 110 -48 31 -129 51 -129 31z"/>
</g>
</svg>
